<?xml version="1.0" encoding="utf-8"?>
<!-- Generator: Adobe Illustrator 26.0.3, SVG Export Plug-In . SVG Version: 6.00 Build 0)  -->
<svg version="1.1" id="Layer_1" xmlns="http://www.w3.org/2000/svg" xmlns:xlink="http://www.w3.org/1999/xlink" x="0px" y="0px"
	 viewBox="0 0 1126.9 348.4" style="enable-background:new 0 0 1126.9 348.4;" xml:space="preserve">
<style type="text/css">
	.st0{fill:#C6D658;}
	.st1{fill:none;stroke:#000000;stroke-width:6;stroke-miterlimit:10;}
</style>
<path class="st0" d="M219.8,117.1c-57.3,101.7,95.1,31.4,118-55.5C312.1,103.9,207.6,191,219.8,117.1z"/>
<path class="st0" d="M243.8,331c17.4-9,28.6-36.4,34.3-51.7c62.8-169.1-47.6-186.9-55,26.9C233.4,188.3,311.4,165.7,243.8,331z"/>
<ellipse transform="matrix(0.9068 -0.4215 0.4215 0.9068 -17.2314 119.8455)" class="st0" cx="262.5" cy="98.9" rx="14.6" ry="23.9"/>
<g>
	<g>
		<path class="st0" d="M246.8,50v4c1,0,1.9,0.2,2.7,0.6c5.8,2.8,7.1,16.5-0.3,31.6c-6.5,13.3-15.9,20.3-21.9,20.3
			c-1,0-1.9-0.2-2.8-0.6c-2.8-1.4-4.5-5.2-4.8-10.6c-0.3-6.3,1.5-13.8,5-21c6.5-13.3,15.9-20.3,21.9-20.3L246.8,50 M246.8,50
			c-8.4,0-18.9,9-25.5,22.5c-7.9,16.1-7.1,32.7,1.6,36.9c1.4,0.7,2.9,1,4.5,1c8.4,0,18.9-9,25.5-22.5c7.9-16.1,7.1-32.7-1.6-36.9
			C249.9,50.3,248.3,50,246.8,50L246.8,50z"/>
	</g>
</g>
<circle class="st0" cx="340.2" cy="33" r="6.8"/>
<path d="M186.3,196.4c5.8-3,11.9-6.8,21.4-11.7c-6.3-0.7-12.6-1-19.1-1c-5.9,0-12,0.3-18.1,0.9C92.7,192,28.7,236.5,24.9,303.1h14
	C47.8,237.9,116.5,194.5,186.3,196.4z"/>
<path d="M144.3,226.9c6.6-6.2,21.5-18.4,23.3-19.8c-59.6,12-102.2,31.8-113.2,96l16.6,0C77,262.1,114.9,234.4,144.3,226.9z"/>
<path d="M136.6,242.1c-39.7,17.9-42.8,32.2-48.9,61h15.5c0.9-17.1,5-31.9,18.7-39.9C123.5,259.3,133.8,246,136.6,242.1z"/>
<g>
	<g>
		<path d="M415.3,116.6c-5.7-5.6-8.5-12.7-8.5-21.2c0-8.6,2.9-15.7,8.6-21.2c5.7-5.6,12.7-8.4,21-8.4c6.3,0,11.9,1.6,16.8,4.8
			c4.9,3.2,8.4,7.7,10.5,13.5h-14c-2.6-5.1-7-7.6-13.3-7.6c-5.3,0-9.5,1.7-12.8,5.2c-3.3,3.5-4.9,8.1-4.9,13.8s1.6,10.3,4.9,13.8
			c3.3,3.5,7.6,5.2,12.8,5.2c6.2,0,10.6-2.5,13.3-7.6h14c-2.1,5.8-5.6,10.3-10.5,13.5c-4.9,3.2-10.5,4.8-16.8,4.8
			C428,124.9,421,122.1,415.3,116.6z"/>
		<path d="M475.8,66.5h11.7v49.1h18.6v8.9h-30.3V66.5z"/>
		<path d="M515.9,102.2V66.5h11.7v35.7c0,4,1,7,3,9c2,2,4.9,3.1,8.7,3.1s6.7-1,8.7-3.1c2-2,3.1-5.1,3.1-9V66.5h11.6v35.7
			c0,7.3-2.3,12.9-6.9,16.9c-4.6,4-10.2,5.9-16.8,5.9s-12.1-2-16.5-5.9C518.1,115.2,515.9,109.6,515.9,102.2z"/>
		<path d="M577,66.5h23.5c5.9,0,10.6,1.4,14,4.3c3.4,2.9,5.1,6.5,5.1,11c0,6.5-3.8,10.8-11.3,13c3.8,0.6,6.9,2.2,9.2,4.9
			c2.3,2.7,3.4,5.9,3.4,9.5c0,4.5-1.7,8.2-5.1,11c-3.4,2.8-8.1,4.2-13.9,4.2H577V66.5z M588.7,75.5v15h10.5c2.6,0,4.7-0.6,6.2-2
			c1.5-1.3,2.3-3.1,2.3-5.5c0-2.4-0.8-4.2-2.3-5.6c-1.5-1.3-3.6-2-6.2-2H588.7z M588.7,115.5h11.8c2.6,0,4.7-0.7,6.3-2.1
			s2.4-3.4,2.4-5.9c0-2.5-0.8-4.5-2.4-5.9c-1.6-1.4-3.7-2.2-6.3-2.2h-11.7V115.5z"/>
		<path d="M679.7,66.5c9.3,0,16.8,2.7,22.5,8c5.7,5.3,8.6,12.3,8.6,21.1c0,8.7-2.9,15.7-8.6,21c-5.7,5.3-13.2,7.9-22.5,7.9H660V66.5
			H679.7z M671.7,115.6h8c6.1,0,10.8-1.8,14.2-5.4c3.4-3.6,5.1-8.5,5.1-14.6c0-6.1-1.7-11-5.1-14.6c-3.4-3.6-8.1-5.4-14.2-5.4h-8
			V115.6z"/>
		<path d="M755.6,66.3v9h-21.7v15.2h19.3v9h-19.3v16h21.7v9h-33.4V66.3H755.6z"/>
		<path d="M793.2,75.5v-9h42.9v9h-15.7v49h-11.6v-49H793.2z"/>
		<path d="M880.5,66.3v9h-21.7v15.2h19.3v9h-19.3v16h21.7v9h-33.4V66.3H880.5z"/>
		<path d="M932.5,66.3h11.7v58.1h-11.7l-26.2-40.2v40.2h-11.7V66.3h11.7l26.2,40.2V66.3z"/>
		<path d="M996.7,66.3h11.7v58.1h-11.7l-26.2-40.2v40.2h-11.7V66.3h11.7l26.2,40.2V66.3z"/>
		<path d="M1022.9,124.4V66.5h11.7v57.9H1022.9z"/>
		<path d="M1067.9,75.1c-2.3,0-4.2,0.6-5.7,1.8c-1.5,1.2-2.2,2.8-2.2,4.9c0,2.1,0.5,3.7,1.6,4.9c1.1,1.2,2.5,2.1,4.3,2.7
			c1.8,0.6,3.7,1.2,5.8,1.7c2.1,0.5,4.2,1.1,6.3,1.8c2.1,0.7,4,1.6,5.8,2.7c1.8,1.1,3.2,2.6,4.3,4.6c1.1,2,1.6,4.5,1.6,7.3
			c0,4.8-1.9,8.9-5.7,12.3c-3.8,3.4-8.8,5.1-15.1,5.1c-6.3,0-11.4-1.5-15.2-4.4c-3.9-3-5.8-7.1-5.8-12.5h12.4
			c0.4,5.1,3.3,7.6,8.7,7.6c2.7,0,4.8-0.7,6.3-2.1c1.5-1.4,2.3-3.2,2.3-5.5c0-2.3-1-4.1-3.1-5.4c-2-1.3-4.5-2.3-7.4-3
			s-5.8-1.5-8.8-2.4c-2.9-0.9-5.4-2.6-7.5-4.9c-2-2.4-3.1-5.5-3.1-9.3c0-5.3,1.9-9.5,5.7-12.6c3.8-3.2,8.7-4.7,14.7-4.7
			c6,0,10.8,1.4,14.5,4.1c3.7,2.7,5.6,6.9,6,12.5H1076c-0.2-2.2-1.1-4-2.5-5.3C1072.1,75.7,1070.2,75.1,1067.9,75.1z"/>
		<path d="M402.1,148.1h7v48h18.7v5.4h-25.7V148.1z"/>
		<path d="M431.2,141.1h7c0.6,2.7,0.9,5.1,0.9,7.1c0,5.8-2.6,8.7-7.9,8.7v-3.4c2.5,0,3.7-1.3,3.7-4v-1.8h-3.8V141.1z"/>
		<path d="M483.6,201.4l-4.2-11.7h-23.7l-4.2,11.7h-7.2l19.4-53.4h7.7l19.3,53.4H483.6z M457.7,184.2h19.7l-9.9-27.6L457.7,184.2z"
			/>
		<path d="M507,159.2v6.9c2.9-5,7.5-7.5,13.8-7.5c4.7,0,8.6,1.6,11.7,4.7c3.1,3.1,4.7,7.5,4.7,13.3v25h-6.9v-23.9
			c0-4.3-1-7.5-3.1-9.7c-2.1-2.2-4.9-3.3-8.5-3.3c-3.6,0-6.5,1.1-8.5,3.3c-2.1,2.2-3.1,5.4-3.1,9.7v23.9h-7v-42.3H507z"/>
		<path d="M551.3,196.1c-3.8-4-5.7-9.3-5.7-15.8c0-6.5,1.9-11.8,5.7-15.8c3.8-4,8.7-6,14.8-6c5.1,0,9.2,1.2,12.4,3.5
			c3.2,2.4,5.5,5.7,6.7,10.1h-7.5c-0.8-2.5-2.2-4.4-4.2-5.8c-2-1.4-4.5-2.1-7.4-2.1c-4,0-7.2,1.4-9.7,4.2c-2.4,2.8-3.7,6.8-3.7,11.9
			c0,5.1,1.2,9.1,3.7,11.9c2.4,2.8,5.7,4.2,9.7,4.2c6,0,9.9-2.6,11.6-7.9h7.5c-1.3,4.2-3.6,7.5-6.8,9.9c-3.3,2.5-7.4,3.7-12.4,3.7
			C560,202.1,555.1,200.1,551.3,196.1z"/>
		<path d="M601.5,151c-0.9,0.9-2.1,1.4-3.4,1.4c-1.3,0-2.5-0.5-3.3-1.4c-0.9-0.9-1.3-2.1-1.3-3.4c0-1.3,0.5-2.5,1.4-3.4
			c0.9-0.9,2-1.4,3.3-1.4c1.3,0,2.4,0.5,3.3,1.4s1.4,2.1,1.4,3.4C602.9,149,602.4,150.1,601.5,151z M594.5,201.4v-42.3h7v42.3H594.5
			z"/>
		<path d="M630.8,202.1c-6.1,0-11-2-14.8-6c-3.8-4-5.7-9.3-5.7-15.9c0-6.6,1.9-11.8,5.8-15.8c3.8-4,8.8-6,15-6
			c6.1,0,11.1,1.9,14.8,5.7c3.7,3.8,5.6,8.6,5.6,14.4c0,1.5-0.1,2.9-0.3,4.2h-33.6c0.2,4.2,1.5,7.5,4,10c2.4,2.4,5.6,3.7,9.4,3.7
			c2.9,0,5.3-0.6,7.3-1.9c2-1.3,3.4-3,4.4-5.1h7.5c-1.3,3.7-3.6,6.8-6.9,9.2C639.8,200.9,635.7,202.1,630.8,202.1z M640.3,167.9
			c-2.5-2.4-5.6-3.7-9.4-3.7c-3.7,0-6.8,1.2-9.3,3.6c-2.5,2.4-3.8,5.7-4.1,9.8h26.6C644.1,173.6,642.8,170.3,640.3,167.9z"/>
		<path d="M667.2,159.2v6.9c2.9-5,7.5-7.5,13.8-7.5c4.7,0,8.6,1.6,11.7,4.7c3.1,3.1,4.7,7.5,4.7,13.3v25h-6.9v-23.9
			c0-4.3-1-7.5-3.1-9.7c-2.1-2.2-4.9-3.3-8.5-3.3s-6.5,1.1-8.5,3.3c-2.1,2.2-3.1,5.4-3.1,9.7v23.9h-7v-42.3H667.2z"/>
		<path d="M715.5,159.2v6.9c2.9-5,7.5-7.5,13.8-7.5c4.7,0,8.6,1.6,11.7,4.7c3.1,3.1,4.7,7.5,4.7,13.3v25h-6.9v-23.9
			c0-4.3-1-7.5-3.1-9.7c-2.1-2.2-4.9-3.3-8.5-3.3s-6.5,1.1-8.5,3.3c-2.1,2.2-3.1,5.4-3.1,9.7v23.9h-7v-42.3H715.5z"/>
		<path d="M774.6,202.1c-6.1,0-11-2-14.8-6c-3.8-4-5.7-9.3-5.7-15.9c0-6.6,1.9-11.8,5.8-15.8c3.8-4,8.8-6,15-6
			c6.1,0,11.1,1.9,14.8,5.7s5.6,8.6,5.6,14.4c0,1.5-0.1,2.9-0.3,4.2h-33.6c0.2,4.2,1.5,7.5,4,10c2.4,2.4,5.6,3.7,9.4,3.7
			c2.9,0,5.3-0.6,7.3-1.9c2-1.3,3.4-3,4.4-5.1h7.5c-1.3,3.7-3.6,6.8-6.9,9.2C783.6,200.9,779.5,202.1,774.6,202.1z M784,167.9
			c-2.5-2.4-5.6-3.7-9.4-3.7c-3.7,0-6.8,1.2-9.3,3.6c-2.5,2.4-3.8,5.7-4.1,9.8h26.6C787.8,173.6,786.6,170.3,784,167.9z"/>
		<path d="M805.4,176.3v-6h30.7v6H805.4z"/>
		<path d="M849.1,148.1h7v48h18.7v5.4h-25.7V148.1z"/>
		<path d="M885.2,196.1c-3.9-4-5.8-9.3-5.8-15.8c0-6.5,2-11.8,6.1-15.8c4.1-4,9.1-6,15.2-6c6.1,0,11.2,2,15.2,6
			c4.1,4,6.1,9.3,6.1,15.8c0,6.5-2.1,11.8-6.4,15.8c-4.2,4-9.4,6-15.5,6C894,202.1,889.1,200.1,885.2,196.1z M900.2,196.4
			c4,0,7.4-1.4,10.3-4.3c2.9-2.8,4.4-6.8,4.4-11.8c0-5-1.4-9-4.2-11.8c-2.8-2.8-6.1-4.2-10.1-4.2c-4,0-7.3,1.4-10,4.2
			c-2.7,2.8-4,6.8-4,11.8c0,5.1,1.3,9,3.8,11.8C892.9,194.9,896.2,196.4,900.2,196.4z"/>
		<path d="M937.8,159.2v7.2c2.5-5.2,6.8-7.9,12.9-7.9v7.3h-1.8c-3.6,0-6.3,0.9-8.2,2.8c-1.9,1.9-2.8,5.1-2.8,9.7v23.1h-7v-42.3
			H937.8z"/>
		<path d="M976.8,202.1c-6.1,0-11-2-14.8-6c-3.8-4-5.7-9.3-5.7-15.9c0-6.6,1.9-11.8,5.8-15.8c3.8-4,8.8-6,15-6
			c6.1,0,11.1,1.9,14.8,5.7s5.6,8.6,5.6,14.4c0,1.5-0.1,2.9-0.3,4.2h-33.6c0.2,4.2,1.5,7.5,4,10c2.4,2.4,5.6,3.7,9.4,3.7
			c2.9,0,5.3-0.6,7.3-1.9c2-1.3,3.4-3,4.4-5.1h7.5c-1.3,3.7-3.6,6.8-6.9,9.2C985.9,200.9,981.8,202.1,976.8,202.1z M986.3,167.9
			c-2.5-2.4-5.6-3.7-9.4-3.7c-3.7,0-6.8,1.2-9.3,3.6c-2.5,2.4-3.8,5.7-4.1,9.8h26.6C990.1,173.6,988.8,170.3,986.3,167.9z"/>
		<path d="M1020,195.7h5.8v5.7h-7.1c-7.3,0-11-3.6-11-10.9v-25.7h-5.5v-5.7h5.5v-10.5h7.1v10.5h10.9v5.7h-10.9v25.7
			c0,1.9,0.4,3.2,1.2,4C1016.7,195.4,1018.1,195.7,1020,195.7z"/>
		<path d="M1047.4,195.7h5.8v5.7h-7.1c-7.3,0-11-3.6-11-10.9v-25.7h-5.5v-5.7h5.5v-10.5h7.1v10.5h10.9v5.7h-10.9v25.7
			c0,1.9,0.4,3.2,1.2,4C1044.1,195.4,1045.4,195.7,1047.4,195.7z"/>
		<path d="M1078.6,202.1c-6.1,0-11-2-14.8-6c-3.8-4-5.7-9.3-5.7-15.9c0-6.6,1.9-11.8,5.8-15.8c3.8-4,8.8-6,15-6
			c6.1,0,11.1,1.9,14.8,5.7s5.6,8.6,5.6,14.4c0,1.5-0.1,2.9-0.3,4.2h-33.6c0.2,4.2,1.5,7.5,4,10c2.4,2.4,5.6,3.7,9.4,3.7
			c2.9,0,5.3-0.6,7.3-1.9c2-1.3,3.4-3,4.4-5.1h7.5c-1.3,3.7-3.6,6.8-6.9,9.2C1087.6,200.9,1083.5,202.1,1078.6,202.1z M1088,167.9
			c-2.5-2.4-5.6-3.7-9.4-3.7c-3.7,0-6.8,1.2-9.3,3.6c-2.5,2.4-3.8,5.7-4.1,9.8h26.6C1091.8,173.6,1090.6,170.3,1088,167.9z"/>
	</g>
	<g>
		<path d="M559.5,247.3v-6.5h31v6.5h-11.3v35.4h-8.4v-35.4H559.5z"/>
		<path d="M611,283.2c-4.8,0-8.8-1.6-11.8-4.7c-3-3.1-4.6-7.3-4.6-12.4s1.5-9.3,4.6-12.4c3.1-3.1,7-4.6,11.9-4.6s8.9,1.5,12,4.5
			c3.1,3,4.7,7.1,4.7,12.1c0,1.2-0.1,2.2-0.2,3.2h-24.2c0.2,2.2,1,3.9,2.4,5.2c1.4,1.3,3.2,2,5.3,2c2.9,0,5.1-1.2,6.5-3.6h9.1
			c-1,3.2-2.8,5.7-5.6,7.7C618.3,282.2,614.9,283.2,611,283.2z M616.5,258.1c-1.5-1.3-3.3-2-5.4-2c-2.1,0-3.9,0.7-5.3,2
			c-1.4,1.3-2.3,3.1-2.5,5.3H619C618.9,261.2,618,259.4,616.5,258.1z"/>
		<path d="M642.9,249.5v5.9c2.2-4.2,5.5-6.4,9.7-6.4v8.6h-2.1c-2.5,0-4.4,0.6-5.7,1.9c-1.3,1.3-1.9,3.4-1.9,6.5v16.7h-8.5v-33.2
			H642.9z"/>
		<path d="M667,249.5v5.9c2.2-4.2,5.5-6.4,9.7-6.4v8.6h-2.1c-2.5,0-4.4,0.6-5.7,1.9c-1.3,1.3-1.9,3.4-1.9,6.5v16.7h-8.5v-33.2H667z"
			/>
		<path d="M696.8,283.2c-4.8,0-8.8-1.6-11.8-4.7c-3-3.1-4.6-7.3-4.6-12.4s1.5-9.3,4.6-12.4c3.1-3.1,7-4.6,11.9-4.6s8.9,1.5,12,4.5
			c3.1,3,4.7,7.1,4.7,12.1c0,1.2-0.1,2.2-0.2,3.2h-24.2c0.2,2.2,1,3.9,2.4,5.2c1.4,1.3,3.2,2,5.3,2c2.9,0,5.1-1.2,6.5-3.6h9.1
			c-1,3.2-2.8,5.7-5.6,7.7C704.1,282.2,700.7,283.2,696.8,283.2z M702.3,258.1c-1.5-1.3-3.3-2-5.4-2c-2.1,0-3.9,0.7-5.3,2
			c-1.4,1.3-2.3,3.1-2.5,5.3h15.7C704.7,261.2,703.8,259.4,702.3,258.1z"/>
		<path d="M746.7,254.6c2.4-3.8,5.8-5.6,10.4-5.6c4.6,0,8.3,1.6,11.3,4.8c3,3.2,4.4,7.3,4.4,12.3c0,5-1.5,9.1-4.4,12.3
			c-3,3.2-6.7,4.8-11.2,4.8s-8-2-10.5-6.1v5.6h-8.5v-44.4h8.5V254.6z M761.6,273.2c1.7-1.8,2.6-4.2,2.6-7.2s-0.9-5.4-2.6-7.1
			c-1.7-1.7-3.8-2.6-6.2-2.6s-4.4,0.9-6.1,2.6c-1.7,1.7-2.6,4.1-2.6,7.2c0,3,0.9,5.4,2.6,7.2c1.7,1.7,3.8,2.6,6.1,2.6
			S759.8,275,761.6,273.2z"/>
		<path d="M781.5,278.4c-3-3.2-4.5-7.3-4.5-12.3s1.5-9.1,4.4-12.3c3-3.2,6.7-4.8,11.3-4.8c4.6,0,8,1.9,10.4,5.6v-5.2h8.4v33.2h-8.4
			v-5.6c-2.5,4-6,6.1-10.5,6.1C788.3,283.2,784.5,281.6,781.5,278.4z M800.6,273.3c1.8-1.7,2.6-4.1,2.6-7.2c0-3-0.9-5.4-2.6-7.2
			c-1.8-1.7-3.8-2.6-6.2-2.6c-2.4,0-4.4,0.9-6.2,2.6c-1.7,1.7-2.6,4.1-2.6,7.1s0.9,5.4,2.6,7.2c1.8,1.8,3.8,2.6,6.2,2.6
			S798.8,275,800.6,273.3z"/>
		<path d="M833.5,275.6h4v7.1h-5.3c-3.4,0-6-0.8-7.9-2.3c-1.8-1.6-2.8-4.1-2.8-7.7v-16.3h-3.5v-6.9h3.5v-8.2h8.5v8.2h7.4v6.9h-7.4
			v16.3c0,1.1,0.3,1.9,0.8,2.3C831.3,275.4,832.2,275.6,833.5,275.6z"/>
		<path d="M857.1,275.6h4v7.1h-5.3c-3.4,0-6-0.8-7.9-2.3c-1.8-1.6-2.8-4.1-2.8-7.7v-16.3h-3.5v-6.9h3.5v-8.2h8.5v8.2h7.4v6.9h-7.4
			v16.3c0,1.1,0.3,1.9,0.8,2.3C854.9,275.4,855.8,275.6,857.1,275.6z"/>
		<path d="M890.6,249.5h8.5v33.2h-8.5v-5c-2.1,3.6-5.6,5.5-10.4,5.5c-3.8,0-6.8-1.2-9.2-3.8c-2.4-2.5-3.6-6-3.6-10.4v-19.5h8.4v18.3
			c0,2.6,0.7,4.6,2,6c1.3,1.4,3.1,2.1,5.4,2.1c2.3,0,4.1-0.7,5.4-2.1c1.3-1.4,2-3.4,2-6V249.5z"/>
		<path d="M922.1,283.2c-4.8,0-8.8-1.6-11.8-4.7c-3-3.1-4.6-7.3-4.6-12.4s1.5-9.3,4.6-12.4c3.1-3.1,7-4.6,11.9-4.6s8.9,1.5,12,4.5
			c3.1,3,4.7,7.1,4.7,12.1c0,1.2-0.1,2.2-0.2,3.2h-24.2c0.2,2.2,1,3.9,2.4,5.2c1.4,1.3,3.2,2,5.3,2c2.9,0,5.1-1.2,6.5-3.6h9.1
			c-1,3.2-2.8,5.7-5.6,7.7C929.3,282.2,926,283.2,922.1,283.2z M927.6,258.1c-1.5-1.3-3.3-2-5.4-2c-2.1,0-3.9,0.7-5.3,2
			c-1.4,1.3-2.3,3.1-2.5,5.3h15.7C929.9,261.2,929.1,259.4,927.6,258.1z"/>
	</g>
	<g>
		<line class="st1" x1="967.7" y1="268.5" x2="1084.6" y2="268.5"/>
		<line class="st1" x1="413.8" y1="259.6" x2="530.7" y2="259.6"/>
	</g>
</g>
</svg>
